<mxfile host="app.diagrams.net" modified="2022-11-02T13:06:33.757Z" agent="5.0 (Windows NT 10.0; Win64; x64) AppleWebKit/537.36 (KHTML, like Gecko) Chrome/107.0.0.0 Safari/537.36" etag="-H1kOpt6hHLLYM7FKn5U" version="20.5.1" type="github">
  <diagram id="kgpKYQtTHZ0yAKxKKP6v" name="Page-1">
    <mxGraphModel dx="2253" dy="615" grid="1" gridSize="10" guides="1" tooltips="1" connect="1" arrows="1" fold="1" page="1" pageScale="1" pageWidth="1100" pageHeight="1700" math="0" shadow="0">
      <root>
        <mxCell id="0" />
        <mxCell id="1" parent="0" />
        <mxCell id="DdBkpnrWH0R67vEJvfOl-33" value="Event A" style="verticalAlign=bottom;endArrow=block;shadow=0;strokeWidth=1;align=center;exitX=0.7;exitY=0.234;exitDx=0;exitDy=0;exitPerimeter=0;" parent="1" edge="1">
          <mxGeometry x="-0.0286" relative="1" as="geometry">
            <mxPoint x="-239.5" y="180" as="sourcePoint" />
            <mxPoint x="-117" y="180" as="targetPoint" />
            <mxPoint as="offset" />
          </mxGeometry>
        </mxCell>
        <mxCell id="DdBkpnrWH0R67vEJvfOl-28" value="Event A" style="verticalAlign=bottom;endArrow=block;shadow=0;strokeWidth=1;align=center;exitX=0.7;exitY=0.234;exitDx=0;exitDy=0;exitPerimeter=0;" parent="1" target="DdBkpnrWH0R67vEJvfOl-26" edge="1">
          <mxGeometry x="0.4842" relative="1" as="geometry">
            <mxPoint x="-380" y="209.99999999999994" as="sourcePoint" />
            <mxPoint x="-227" y="210.44" as="targetPoint" />
            <mxPoint as="offset" />
          </mxGeometry>
        </mxCell>
        <mxCell id="DdBkpnrWH0R67vEJvfOl-20" value="" style="verticalLabelPosition=bottom;verticalAlign=top;html=1;shape=mxgraph.basic.rect;fillColor2=none;strokeWidth=1;size=20;indent=5;shadow=0;fontSize=19;fillColor=none;" parent="1" vertex="1">
          <mxGeometry x="-60" y="120" width="620" height="460" as="geometry" />
        </mxCell>
        <mxCell id="JTx4G79-5E-FjnBDEjon-37" value="playback" style="shape=umlLifeline;perimeter=lifelinePerimeter;container=1;collapsible=0;recursiveResize=0;rounded=0;shadow=0;strokeWidth=1;size=30;" parent="1" vertex="1">
          <mxGeometry x="440" y="130" width="100" height="420" as="geometry" />
        </mxCell>
        <mxCell id="JTx4G79-5E-FjnBDEjon-38" value="" style="points=[];perimeter=orthogonalPerimeter;rounded=0;shadow=0;strokeWidth=1;" parent="JTx4G79-5E-FjnBDEjon-37" vertex="1">
          <mxGeometry x="45" y="310" width="10" height="90" as="geometry" />
        </mxCell>
        <mxCell id="JTx4G79-5E-FjnBDEjon-69" value="" style="shape=sumEllipse;perimeter=ellipsePerimeter;whiteSpace=wrap;html=1;backgroundOutline=1;shadow=0;fontSize=12;strokeWidth=2;align=left;sketch=0;strokeColor=#FF0000;" parent="JTx4G79-5E-FjnBDEjon-37" vertex="1">
          <mxGeometry x="35" y="330" width="30" height="30" as="geometry" />
        </mxCell>
        <mxCell id="JTx4G79-5E-FjnBDEjon-15" value="" style="verticalLabelPosition=bottom;verticalAlign=top;html=1;shape=mxgraph.basic.rect;fillColor2=none;strokeWidth=1;size=20;indent=5;shadow=0;fontSize=19;fillColor=none;" parent="1" vertex="1">
          <mxGeometry x="-430" y="190" width="75" height="340" as="geometry" />
        </mxCell>
        <mxCell id="3nuBFxr9cyL0pnOWT2aG-1" value="observer" style="shape=umlLifeline;perimeter=lifelinePerimeter;container=1;collapsible=0;recursiveResize=0;rounded=0;shadow=0;strokeWidth=1;size=30;" parent="1" vertex="1">
          <mxGeometry x="-430" y="80" width="100" height="410" as="geometry" />
        </mxCell>
        <mxCell id="3nuBFxr9cyL0pnOWT2aG-2" value="" style="points=[];perimeter=orthogonalPerimeter;rounded=0;shadow=0;strokeWidth=1;" parent="3nuBFxr9cyL0pnOWT2aG-1" vertex="1">
          <mxGeometry x="45" y="80" width="10" height="340" as="geometry" />
        </mxCell>
        <mxCell id="3nuBFxr9cyL0pnOWT2aG-3" value="Copy Text(Event)" style="verticalAlign=bottom;startArrow=oval;endArrow=block;startSize=8;shadow=0;strokeWidth=1;align=right;" parent="3nuBFxr9cyL0pnOWT2aG-1" target="3nuBFxr9cyL0pnOWT2aG-2" edge="1">
          <mxGeometry relative="1" as="geometry">
            <mxPoint x="-70" y="130" as="sourcePoint" />
          </mxGeometry>
        </mxCell>
        <mxCell id="3nuBFxr9cyL0pnOWT2aG-5" value="translate" style="shape=umlLifeline;perimeter=lifelinePerimeter;container=1;collapsible=0;recursiveResize=0;rounded=0;shadow=0;strokeWidth=1;size=30;" parent="1" vertex="1">
          <mxGeometry x="190" y="130" width="100" height="430" as="geometry" />
        </mxCell>
        <mxCell id="3nuBFxr9cyL0pnOWT2aG-6" value="" style="points=[];perimeter=orthogonalPerimeter;rounded=0;shadow=0;strokeWidth=1;" parent="3nuBFxr9cyL0pnOWT2aG-5" vertex="1">
          <mxGeometry x="45" y="150" width="10" height="30" as="geometry" />
        </mxCell>
        <mxCell id="3nuBFxr9cyL0pnOWT2aG-8" value="translate request&#xa;(async *2)" style="verticalAlign=bottom;endArrow=block;entryX=0;entryY=0;shadow=0;strokeWidth=1;align=center;exitX=0.7;exitY=0.234;exitDx=0;exitDy=0;exitPerimeter=0;" parent="1" source="DdBkpnrWH0R67vEJvfOl-14" target="3nuBFxr9cyL0pnOWT2aG-6" edge="1">
          <mxGeometry x="0.0196" relative="1" as="geometry">
            <mxPoint x="-125" y="270" as="sourcePoint" />
            <mxPoint as="offset" />
          </mxGeometry>
        </mxCell>
        <mxCell id="JTx4G79-5E-FjnBDEjon-1" value="text-to-speech" style="shape=umlLifeline;perimeter=lifelinePerimeter;container=1;collapsible=0;recursiveResize=0;rounded=0;shadow=0;strokeWidth=1;size=30;" parent="1" vertex="1">
          <mxGeometry x="320" y="130" width="100" height="420" as="geometry" />
        </mxCell>
        <mxCell id="JTx4G79-5E-FjnBDEjon-11" value="" style="points=[];perimeter=orthogonalPerimeter;rounded=0;shadow=0;strokeWidth=1;" parent="JTx4G79-5E-FjnBDEjon-1" vertex="1">
          <mxGeometry x="45" y="240" width="10" height="30" as="geometry" />
        </mxCell>
        <mxCell id="JTx4G79-5E-FjnBDEjon-5" value="Translate process" style="text;html=1;strokeColor=#666666;fillColor=#f5f5f5;align=center;verticalAlign=bottom;whiteSpace=wrap;rounded=0;strokeWidth=2;perimeterSpacing=0;shadow=0;fontSize=14;fontStyle=1;fontColor=#333333;" parent="1" vertex="1">
          <mxGeometry x="180" y="90" width="200" height="20" as="geometry" />
        </mxCell>
        <mxCell id="JTx4G79-5E-FjnBDEjon-10" value="text to speech &#xa;request(async)" style="verticalAlign=bottom;endArrow=block;shadow=0;strokeWidth=1;entryX=0.3;entryY=0.033;entryDx=0;entryDy=0;entryPerimeter=0;align=center;exitX=0.536;exitY=0.587;exitDx=0;exitDy=0;exitPerimeter=0;" parent="1" source="DdBkpnrWH0R67vEJvfOl-13" target="JTx4G79-5E-FjnBDEjon-11" edge="1">
          <mxGeometry x="0.5218" relative="1" as="geometry">
            <mxPoint x="-170" y="371" as="sourcePoint" />
            <mxPoint x="-10" y="330" as="targetPoint" />
            <mxPoint as="offset" />
          </mxGeometry>
        </mxCell>
        <mxCell id="JTx4G79-5E-FjnBDEjon-14" value="callback" style="verticalAlign=bottom;endArrow=open;dashed=1;endSize=8;shadow=0;strokeWidth=1;exitX=0;exitY=1;exitDx=0;exitDy=0;exitPerimeter=0;align=center;entryX=0.36;entryY=0.045;entryDx=0;entryDy=0;entryPerimeter=0;" parent="1" source="JTx4G79-5E-FjnBDEjon-11" target="DdBkpnrWH0R67vEJvfOl-16" edge="1">
          <mxGeometry x="-0.609" y="1" relative="1" as="geometry">
            <mxPoint x="-110" y="400" as="targetPoint" />
            <mxPoint x="-15" y="380.75" as="sourcePoint" />
            <Array as="points" />
            <mxPoint as="offset" />
          </mxGeometry>
        </mxCell>
        <mxCell id="JTx4G79-5E-FjnBDEjon-17" value="loop" style="text;strokeColor=none;fillColor=none;align=left;verticalAlign=middle;spacingLeft=4;spacingRight=4;overflow=hidden;rotatable=0;points=[[0,0.5],[1,0.5]];portConstraint=eastwest;shadow=0;fontSize=12;horizontal=1;" parent="1" vertex="1">
          <mxGeometry x="-430" y="490" width="60" height="20" as="geometry" />
        </mxCell>
        <mxCell id="JTx4G79-5E-FjnBDEjon-39" value="playback audio&#xa;(async)" style="verticalAlign=bottom;endArrow=block;shadow=0;strokeWidth=1;exitX=0.496;exitY=0.76;exitDx=0;exitDy=0;exitPerimeter=0;align=center;" parent="1" source="DdBkpnrWH0R67vEJvfOl-13" target="JTx4G79-5E-FjnBDEjon-37" edge="1">
          <mxGeometry x="0.7097" relative="1" as="geometry">
            <mxPoint x="-220" y="440" as="sourcePoint" />
            <mxPoint x="239.5" y="440" as="targetPoint" />
            <mxPoint as="offset" />
          </mxGeometry>
        </mxCell>
        <mxCell id="JTx4G79-5E-FjnBDEjon-67" value="stop audio&#xa;(async)" style="verticalAlign=bottom;endArrow=block;shadow=0;strokeWidth=1;entryX=0.267;entryY=0.4;entryDx=0;entryDy=0;entryPerimeter=0;align=center;exitX=1.02;exitY=0.798;exitDx=0;exitDy=0;exitPerimeter=0;" parent="1" source="DdBkpnrWH0R67vEJvfOl-14" target="JTx4G79-5E-FjnBDEjon-69" edge="1">
          <mxGeometry x="0.7335" relative="1" as="geometry">
            <mxPoint x="-230" y="470" as="sourcePoint" />
            <mxPoint x="220" y="470" as="targetPoint" />
            <mxPoint as="offset" />
            <Array as="points" />
          </mxGeometry>
        </mxCell>
        <mxCell id="JTx4G79-5E-FjnBDEjon-74" value="*1 : when ClipBord Text is English, &quot;callback&quot;&lt;br&gt;not is(=Japanese) &quot;return&quot;" style="text;html=1;strokeColor=none;fillColor=none;align=center;verticalAlign=middle;whiteSpace=wrap;rounded=0;shadow=0;sketch=0;fontSize=12;" parent="1" vertex="1">
          <mxGeometry x="160" y="630" width="260" height="50" as="geometry" />
        </mxCell>
        <mxCell id="JTx4G79-5E-FjnBDEjon-76" value="*2 : when ClipBord Text is English, &quot;async&quot;&lt;br&gt;not is(=Japanese) &quot;await&quot;" style="text;html=1;strokeColor=none;fillColor=none;align=center;verticalAlign=middle;whiteSpace=wrap;rounded=0;shadow=0;sketch=0;fontSize=12;" parent="1" vertex="1">
          <mxGeometry x="160" y="680" width="260" height="50" as="geometry" />
        </mxCell>
        <mxCell id="DdBkpnrWH0R67vEJvfOl-2" value="scanner" style="shape=umlLifeline;perimeter=lifelinePerimeter;container=1;collapsible=0;recursiveResize=0;rounded=0;shadow=0;strokeWidth=1;size=30;" parent="1" vertex="1">
          <mxGeometry x="-280" y="80" width="100" height="430" as="geometry" />
        </mxCell>
        <mxCell id="DdBkpnrWH0R67vEJvfOl-3" value="" style="points=[];perimeter=orthogonalPerimeter;rounded=0;shadow=0;strokeWidth=1;" parent="DdBkpnrWH0R67vEJvfOl-2" vertex="1">
          <mxGeometry x="45" y="75" width="10" height="340" as="geometry" />
        </mxCell>
        <mxCell id="DdBkpnrWH0R67vEJvfOl-4" value="run scanner(async)" style="verticalAlign=bottom;endArrow=block;entryX=0.484;entryY=0.163;shadow=0;strokeWidth=1;align=center;entryDx=0;entryDy=0;entryPerimeter=0;" parent="1" target="DdBkpnrWH0R67vEJvfOl-2" edge="1">
          <mxGeometry relative="1" as="geometry">
            <mxPoint x="-378" y="150" as="sourcePoint" />
            <mxPoint x="80" y="150" as="targetPoint" />
            <Array as="points">
              <mxPoint x="-570" y="150" />
            </Array>
          </mxGeometry>
        </mxCell>
        <mxCell id="DdBkpnrWH0R67vEJvfOl-5" value="Input(Event)" style="verticalAlign=bottom;startArrow=oval;endArrow=block;startSize=8;shadow=0;strokeWidth=1;align=center;" parent="1" edge="1">
          <mxGeometry relative="1" as="geometry">
            <mxPoint x="-310" y="180" as="sourcePoint" />
            <mxPoint x="-235" y="180" as="targetPoint" />
            <Array as="points">
              <mxPoint x="-260" y="180" />
            </Array>
          </mxGeometry>
        </mxCell>
        <mxCell id="DdBkpnrWH0R67vEJvfOl-13" value="Thread A" style="shape=umlLifeline;perimeter=lifelinePerimeter;container=1;collapsible=0;recursiveResize=0;rounded=0;shadow=0;strokeWidth=1;" parent="1" vertex="1">
          <mxGeometry x="30" y="130" width="100" height="410" as="geometry" />
        </mxCell>
        <mxCell id="DdBkpnrWH0R67vEJvfOl-14" value="" style="points=[];perimeter=orthogonalPerimeter;rounded=0;shadow=0;strokeWidth=1;" parent="DdBkpnrWH0R67vEJvfOl-13" vertex="1">
          <mxGeometry x="45" y="70" width="10" height="340" as="geometry" />
        </mxCell>
        <mxCell id="DdBkpnrWH0R67vEJvfOl-16" value="" style="points=[];perimeter=orthogonalPerimeter;rounded=0;shadow=0;strokeWidth=1;" parent="DdBkpnrWH0R67vEJvfOl-13" vertex="1">
          <mxGeometry x="50" y="270" width="10" height="40" as="geometry" />
        </mxCell>
        <mxCell id="DdBkpnrWH0R67vEJvfOl-17" value="" style="points=[];perimeter=orthogonalPerimeter;rounded=0;shadow=0;strokeWidth=1;" parent="DdBkpnrWH0R67vEJvfOl-13" vertex="1">
          <mxGeometry x="50" y="180" width="10" height="30" as="geometry" />
        </mxCell>
        <mxCell id="DdBkpnrWH0R67vEJvfOl-18" value="" style="points=[];perimeter=orthogonalPerimeter;rounded=0;shadow=0;strokeWidth=1;" parent="DdBkpnrWH0R67vEJvfOl-13" vertex="1">
          <mxGeometry x="50" y="340" width="10" height="40" as="geometry" />
        </mxCell>
        <mxCell id="3nuBFxr9cyL0pnOWT2aG-7" value="callback *1" style="verticalAlign=bottom;endArrow=open;dashed=1;endSize=8;shadow=0;strokeWidth=1;exitX=0;exitY=1.025;exitDx=0;exitDy=0;exitPerimeter=0;align=center;entryX=0.6;entryY=0.047;entryDx=0;entryDy=0;entryPerimeter=0;" parent="1" source="3nuBFxr9cyL0pnOWT2aG-6" target="DdBkpnrWH0R67vEJvfOl-17" edge="1">
          <mxGeometry x="-0.1275" relative="1" as="geometry">
            <mxPoint x="130" y="320" as="targetPoint" />
            <mxPoint x="21" y="360" as="sourcePoint" />
            <Array as="points" />
            <mxPoint as="offset" />
          </mxGeometry>
        </mxCell>
        <mxCell id="DdBkpnrWH0R67vEJvfOl-21" value="Copy Text" style="text;html=1;strokeColor=#666666;fillColor=#f5f5f5;align=center;verticalAlign=middle;whiteSpace=wrap;rounded=0;strokeWidth=2;perimeterSpacing=0;shadow=0;fontSize=19;fontStyle=1;fontColor=#333333;" parent="1" vertex="1">
          <mxGeometry x="-60" y="20" width="200" height="40" as="geometry" />
        </mxCell>
        <mxCell id="DdBkpnrWH0R67vEJvfOl-26" value="Handler" style="shape=umlLifeline;perimeter=lifelinePerimeter;container=1;collapsible=0;recursiveResize=0;rounded=0;shadow=0;strokeWidth=1;size=30;" parent="1" vertex="1">
          <mxGeometry x="-160" y="80" width="100" height="430" as="geometry" />
        </mxCell>
        <mxCell id="DdBkpnrWH0R67vEJvfOl-27" value="" style="points=[];perimeter=orthogonalPerimeter;rounded=0;shadow=0;strokeWidth=1;" parent="DdBkpnrWH0R67vEJvfOl-26" vertex="1">
          <mxGeometry x="45" y="70" width="10" height="340" as="geometry" />
        </mxCell>
        <mxCell id="DdBkpnrWH0R67vEJvfOl-30" value="Event A" style="verticalAlign=bottom;startArrow=oval;endArrow=block;startSize=8;shadow=0;strokeWidth=1;align=center;" parent="1" edge="1">
          <mxGeometry relative="1" as="geometry">
            <mxPoint x="-20" y="200" as="sourcePoint" />
            <mxPoint x="75" y="200" as="targetPoint" />
          </mxGeometry>
        </mxCell>
        <mxCell id="DdBkpnrWH0R67vEJvfOl-31" value="Event B" style="verticalAlign=bottom;startArrow=oval;endArrow=block;startSize=8;shadow=0;strokeWidth=1;align=center;" parent="1" edge="1">
          <mxGeometry relative="1" as="geometry">
            <mxPoint x="-20" y="470" as="sourcePoint" />
            <mxPoint x="75" y="470" as="targetPoint" />
          </mxGeometry>
        </mxCell>
        <mxCell id="DdBkpnrWH0R67vEJvfOl-34" value="EventB, and &#xa;AfterEvent A" style="verticalAlign=bottom;endArrow=block;shadow=0;strokeWidth=1;align=center;exitX=0.7;exitY=0.234;exitDx=0;exitDy=0;exitPerimeter=0;" parent="1" edge="1">
          <mxGeometry x="0.4842" relative="1" as="geometry">
            <mxPoint x="-380" y="470" as="sourcePoint" />
            <mxPoint x="-110.5" y="470" as="targetPoint" />
            <mxPoint as="offset" />
          </mxGeometry>
        </mxCell>
        <mxCell id="DdBkpnrWH0R67vEJvfOl-35" value="Copy Text(Event)" style="verticalAlign=bottom;startArrow=oval;endArrow=block;startSize=8;shadow=0;strokeWidth=1;align=right;" parent="1" edge="1">
          <mxGeometry relative="1" as="geometry">
            <mxPoint x="-500" y="470" as="sourcePoint" />
            <mxPoint x="-385" y="470" as="targetPoint" />
          </mxGeometry>
        </mxCell>
        <mxCell id="1v2xwaVN7Vn1wIGSXelO-4" value="Main" style="shape=umlLifeline;perimeter=lifelinePerimeter;container=1;collapsible=0;recursiveResize=0;rounded=0;shadow=0;strokeWidth=1;size=30;" vertex="1" parent="1">
          <mxGeometry x="-620" y="80" width="100" height="410" as="geometry" />
        </mxCell>
        <mxCell id="1v2xwaVN7Vn1wIGSXelO-5" value="" style="points=[];perimeter=orthogonalPerimeter;rounded=0;shadow=0;strokeWidth=1;" vertex="1" parent="1v2xwaVN7Vn1wIGSXelO-4">
          <mxGeometry x="45" y="70" width="10" height="340" as="geometry" />
        </mxCell>
        <mxCell id="1v2xwaVN7Vn1wIGSXelO-7" value="" style="verticalAlign=bottom;endArrow=block;shadow=0;strokeWidth=1;align=center;" edge="1" parent="1v2xwaVN7Vn1wIGSXelO-4">
          <mxGeometry relative="1" as="geometry">
            <mxPoint x="237" y="100" as="sourcePoint" />
            <mxPoint x="237" y="100" as="targetPoint" />
            <Array as="points">
              <mxPoint x="45" y="100" />
            </Array>
          </mxGeometry>
        </mxCell>
        <mxCell id="1v2xwaVN7Vn1wIGSXelO-9" value="run observer(async)" style="edgeLabel;html=1;align=center;verticalAlign=middle;resizable=0;points=[];" vertex="1" connectable="0" parent="1v2xwaVN7Vn1wIGSXelO-7">
          <mxGeometry x="0.545" y="2" relative="1" as="geometry">
            <mxPoint x="-9" y="-8" as="offset" />
          </mxGeometry>
        </mxCell>
      </root>
    </mxGraphModel>
  </diagram>
</mxfile>
